<?xml version="1.0" encoding="UTF-8" standalone="no"?>
<!DOCTYPE svg PUBLIC "-//W3C//DTD SVG 1.1//EN"
 "http://www.w3.org/Graphics/SVG/1.1/DTD/svg11.dtd">
<!-- Generated by graphviz version 15.1.0 (20260618.0150)
 -->
<!-- Title: dependency&#45;cruiser output Pages: 1 -->
<svg width="180pt" height="139pt"
 viewBox="0.00 0.00 180.00 139.00" xmlns="http://www.w3.org/2000/svg" xmlns:xlink="http://www.w3.org/1999/xlink">
<g id="graph0" class="graph" transform="scale(1 1) rotate(0) translate(4 135)">
<title>dependency&#45;cruiser output</title>
<polygon fill="white" stroke="none" points="-4,4 -4,-135 176,-135 176,4 -4,4"/>
<g id="clust1" class="cluster">
<title>cluster_src</title>
<path fill="#ffffff" stroke="black" stroke-width="2" d="M20,-8C20,-8 152,-8 152,-8 158,-8 164,-14 164,-20 164,-20 164,-111 164,-111 164,-117 158,-123 152,-123 152,-123 20,-123 20,-123 14,-123 8,-117 8,-111 8,-111 8,-20 8,-20 8,-14 14,-8 20,-8"/>
<text xml:space="preserve" text-anchor="middle" x="86" y="-110.45" font-family="Helvetica,sans-Serif" font-weight="bold" font-size="9.00">src</text>
</g>
<!-- src/components -->
<g id="node1" class="node">
<title>src/components</title>
<g id="a_node1"><a xlink:href="src/components" xlink:title="no&#45;orphans">
<polygon fill="#ffffcc" stroke="orange" points="85.62,-34.25 21.43,-34.25 19.38,-32.19 19.38,-15.75 83.57,-15.75 85.62,-17.81 85.62,-34.25"/>
<polyline fill="none" stroke="orange" points="83.57,-32.19 19.38,-32.19"/>
<polyline fill="none" stroke="orange" points="83.57,-32.19 83.57,-15.75"/>
<polyline fill="none" stroke="orange" points="83.57,-32.19 85.62,-34.25"/>
<text xml:space="preserve" text-anchor="start" x="27.38" y="-22" font-family="Helvetica,sans-Serif" font-size="9.00" fill="orange">components</text>
</a>
</g>
</g>
<!-- src/lib -->
<g id="node2" class="node">
<title>src/lib</title>
<g id="a_node2"><a xlink:href="src/lib" xlink:title="no&#45;orphans">
<polygon fill="#dbeafe" stroke="orange" points="156,-65.25 104.06,-65.25 102,-63.19 102,-46.75 153.94,-46.75 156,-48.81 156,-65.25"/>
<polyline fill="none" stroke="orange" points="153.94,-63.19 102,-63.19"/>
<polyline fill="none" stroke="orange" points="153.94,-63.19 153.94,-46.75"/>
<polyline fill="none" stroke="orange" points="153.94,-63.19 156,-65.25"/>
<text xml:space="preserve" text-anchor="start" x="124.12" y="-53" font-family="Helvetica,sans-Serif" font-size="9.00" fill="orange">lib</text>
</a>
</g>
</g>
<!-- src/components&#45;&gt;src/lib -->
<g id="edge1" class="edge">
<title>src/components&#45;&gt;src/lib</title>
<path fill="none" stroke="#000000" stroke-width="2" stroke-opacity="0.200000" d="M85.95,-28.08C90.14,-28.08 93,-28.08 93,-28.08 93,-28.08 93,-51.38 93,-51.38 93,-51.38 93.87,-51.38 93.87,-51.38"/>
<polygon fill="#000000" fill-opacity="0.200000" stroke="#000000" stroke-width="2" stroke-opacity="0.200000" points="92.69,-53.48 98.69,-51.38 92.69,-49.28 92.69,-53.48"/>
</g>
<!-- src/data -->
<g id="node3" class="node">
<title>src/data</title>
<g id="a_node3"><a xlink:href="src/data" xlink:title="data">
<polygon fill="#ffffcc" stroke="black" points="156,-34.25 104.06,-34.25 102,-32.19 102,-15.75 153.94,-15.75 156,-17.81 156,-34.25"/>
<polyline fill="none" stroke="black" points="153.94,-32.19 102,-32.19"/>
<polyline fill="none" stroke="black" points="153.94,-32.19 153.94,-15.75"/>
<polyline fill="none" stroke="black" points="153.94,-32.19 156,-34.25"/>
<text xml:space="preserve" text-anchor="start" x="120" y="-22" font-family="Helvetica,sans-Serif" font-size="9.00">data</text>
</a>
</g>
</g>
<!-- src/components&#45;&gt;src/data -->
<g id="edge2" class="edge">
<title>src/components&#45;&gt;src/data</title>
<path fill="none" stroke="#000000" stroke-width="2" stroke-opacity="0.200000" d="M85.83,-21.92C85.83,-21.92 92.72,-21.92 92.72,-21.92"/>
<polygon fill="#000000" fill-opacity="0.200000" stroke="#000000" stroke-width="2" stroke-opacity="0.200000" points="92.72,-24.02 98.72,-21.92 92.72,-19.82 92.72,-24.02"/>
</g>
<!-- src/middleware.ts -->
<g id="node4" class="node">
<title>src/middleware.ts</title>
<g id="a_node4"><a xlink:href="src/middleware.ts" xlink:title="middleware.ts">
<path fill="#ddfeff" stroke="black" d="M82.83,-65.25C82.83,-65.25 22.17,-65.25 22.17,-65.25 19.08,-65.25 16,-62.17 16,-59.08 16,-59.08 16,-52.92 16,-52.92 16,-49.83 19.08,-46.75 22.17,-46.75 22.17,-46.75 82.83,-46.75 82.83,-46.75 85.92,-46.75 89,-49.83 89,-52.92 89,-52.92 89,-59.08 89,-59.08 89,-62.17 85.92,-65.25 82.83,-65.25"/>
<text xml:space="preserve" text-anchor="start" x="24" y="-53" font-family="Helvetica,sans-Serif" font-size="9.00">middleware.ts</text>
</a>
</g>
</g>
<!-- src/middleware.ts&#45;&gt;src/lib -->
<g id="edge3" class="edge">
<title>src/middleware.ts&#45;&gt;src/lib</title>
<path fill="none" stroke="#000000" stroke-width="2" stroke-opacity="0.200000" d="M89.41,-56C89.41,-56 92.63,-56 92.63,-56"/>
<polygon fill="#000000" fill-opacity="0.200000" stroke="#000000" stroke-width="2" stroke-opacity="0.200000" points="92.63,-58.1 98.63,-56 92.63,-53.9 92.63,-58.1"/>
</g>
<!-- src/pages -->
<g id="node5" class="node">
<title>src/pages</title>
<g id="a_node5"><a xlink:href="src/pages" xlink:title="pages">
<polygon fill="#ffffcc" stroke="black" points="79.5,-96.25 27.56,-96.25 25.5,-94.19 25.5,-77.75 77.44,-77.75 79.5,-79.81 79.5,-96.25"/>
<polyline fill="none" stroke="black" points="77.44,-94.19 25.5,-94.19"/>
<polyline fill="none" stroke="black" points="77.44,-94.19 77.44,-77.75"/>
<polyline fill="none" stroke="black" points="77.44,-94.19 79.5,-96.25"/>
<text xml:space="preserve" text-anchor="start" x="39.75" y="-84" font-family="Helvetica,sans-Serif" font-size="9.00">pages</text>
</a>
</g>
</g>
<!-- src/pages&#45;&gt;src/lib -->
<g id="edge4" class="edge">
<title>src/pages&#45;&gt;src/lib</title>
<path fill="none" stroke="#000000" stroke-width="2" stroke-opacity="0.200000" d="M79.76,-83.92C89.45,-83.92 98,-83.92 98,-83.92 98,-83.92 98,-60.62 98,-60.62 98,-60.62 98.38,-60.62 98.38,-60.62"/>
<polygon fill="#000000" fill-opacity="0.200000" stroke="#000000" stroke-width="2" stroke-opacity="0.200000" points="92.77,-62.73 98.77,-60.63 92.77,-58.53 92.77,-62.73"/>
</g>
<!-- src/types -->
<g id="node6" class="node">
<title>src/types</title>
<g id="a_node6"><a xlink:href="src/types" xlink:title="no&#45;orphans">
<polygon fill="#f3e8ff" stroke="orange" points="156,-96.25 104.06,-96.25 102,-94.19 102,-77.75 153.94,-77.75 156,-79.81 156,-96.25"/>
<polyline fill="none" stroke="orange" points="153.94,-94.19 102,-94.19"/>
<polyline fill="none" stroke="orange" points="153.94,-94.19 153.94,-77.75"/>
<polyline fill="none" stroke="orange" points="153.94,-94.19 156,-96.25"/>
<text xml:space="preserve" text-anchor="start" x="118.12" y="-84" font-family="Helvetica,sans-Serif" font-size="9.00" fill="orange">types</text>
</a>
</g>
</g>
<!-- src/pages&#45;&gt;src/types -->
<g id="edge5" class="edge">
<title>src/pages&#45;&gt;src/types</title>
<path fill="none" stroke="#000000" stroke-width="2" stroke-opacity="0.200000" d="M79.69,-90.08C79.69,-90.08 92.62,-90.08 92.62,-90.08"/>
<polygon fill="#000000" fill-opacity="0.200000" stroke="#000000" stroke-width="2" stroke-opacity="0.200000" points="92.62,-92.18 98.62,-90.08 92.62,-87.98 92.62,-92.18"/>
</g>
</g>
</svg>
