<?xml version="1.0" encoding="UTF-8" standalone="no"?>
<!DOCTYPE svg PUBLIC "-//W3C//DTD SVG 1.1//EN"
 "http://www.w3.org/Graphics/SVG/1.1/DTD/svg11.dtd">
<!-- Generated by graphviz version 15.1.0 (20260618.0150)
 -->
<!-- Title: dependency&#45;cruiser output Pages: 1 -->
<svg width="172pt" height="112pt"
 viewBox="0.00 0.00 172.00 112.00" xmlns="http://www.w3.org/2000/svg" xmlns:xlink="http://www.w3.org/1999/xlink">
<g id="graph0" class="graph" transform="scale(1 1) rotate(0) translate(4 108)">
<title>dependency&#45;cruiser output</title>
<polygon fill="white" stroke="none" points="-4,4 -4,-108 168,-108 168,4 -4,4"/>
<g id="clust1" class="cluster">
<title>cluster_src</title>
<path fill="#ffffff" stroke="black" stroke-width="2" d="M20,-8C20,-8 144,-8 144,-8 150,-8 156,-14 156,-20 156,-20 156,-84 156,-84 156,-90 150,-96 144,-96 144,-96 20,-96 20,-96 14,-96 8,-90 8,-84 8,-84 8,-20 8,-20 8,-14 14,-8 20,-8"/>
<text xml:space="preserve" text-anchor="middle" x="82" y="-83.45" font-family="Helvetica,sans-Serif" font-weight="bold" font-size="9.00">src</text>
</g>
<g id="clust2" class="cluster">
<title>cluster_src/pages</title>
<path fill="#ffffff" stroke="black" stroke-width="2" d="M28,-16C28,-16 74,-16 74,-16 80,-16 86,-22 86,-28 86,-28 86,-57 86,-57 86,-63 80,-69 74,-69 74,-69 28,-69 28,-69 22,-69 16,-63 16,-57 16,-57 16,-28 16,-28 16,-22 22,-16 28,-16"/>
<text xml:space="preserve" text-anchor="middle" x="51" y="-56.45" font-family="Helvetica,sans-Serif" font-weight="bold" font-size="9.00">pages</text>
</g>
<!-- src/lib/ -->
<g id="node1" class="node">
<title>src/lib/</title>
<g id="a_node1"><a xlink:href="src/lib/" xlink:title="lib">
<polygon fill="#dbeafe" stroke="black" points="148,-36.25 96.06,-36.25 94,-34.19 94,-17.75 145.94,-17.75 148,-19.81 148,-36.25"/>
<polyline fill="none" stroke="black" points="145.94,-34.19 94,-34.19"/>
<polyline fill="none" stroke="black" points="145.94,-34.19 145.94,-17.75"/>
<polyline fill="none" stroke="black" points="145.94,-34.19 148,-36.25"/>
<text xml:space="preserve" text-anchor="start" x="116.12" y="-24" font-family="Helvetica,sans-Serif" font-size="9.00">lib</text>
</a>
</g>
</g>
<!-- src/pages/api/ -->
<g id="node2" class="node">
<title>src/pages/api/</title>
<g id="a_node2"><a xlink:href="src/pages/api/" xlink:title="api">
<polygon fill="#dcfce7" stroke="black" points="78,-42.25 26.06,-42.25 24,-40.19 24,-23.75 75.94,-23.75 78,-25.81 78,-42.25"/>
<polyline fill="none" stroke="black" points="75.94,-40.19 24,-40.19"/>
<polyline fill="none" stroke="black" points="75.94,-40.19 75.94,-23.75"/>
<polyline fill="none" stroke="black" points="75.94,-40.19 78,-42.25"/>
<text xml:space="preserve" text-anchor="start" x="44.62" y="-30" font-family="Helvetica,sans-Serif" font-size="9.00">api</text>
</a>
</g>
</g>
<!-- src/pages/api/&#45;&gt;src/lib/ -->
<g id="edge1" class="edge">
<title>src/pages/api/&#45;&gt;src/lib/</title>
<path fill="none" stroke="#000000" stroke-width="2" stroke-opacity="0.200000" d="M78.26,-30C78.26,-30 84.67,-30 84.67,-30"/>
<polygon fill="#000000" fill-opacity="0.200000" stroke="#000000" stroke-width="2" stroke-opacity="0.200000" points="84.67,-32.1 90.67,-30 84.67,-27.9 84.67,-32.1"/>
</g>
<!-- src/types/ -->
<g id="node3" class="node">
<title>src/types/</title>
<g id="a_node3"><a xlink:href="src/types/" xlink:title="types">
<polygon fill="#f3e8ff" stroke="black" points="148,-67.25 96.06,-67.25 94,-65.19 94,-48.75 145.94,-48.75 148,-50.81 148,-67.25"/>
<polyline fill="none" stroke="black" points="145.94,-65.19 94,-65.19"/>
<polyline fill="none" stroke="black" points="145.94,-65.19 145.94,-48.75"/>
<polyline fill="none" stroke="black" points="145.94,-65.19 148,-67.25"/>
<text xml:space="preserve" text-anchor="start" x="110.12" y="-55" font-family="Helvetica,sans-Serif" font-size="9.00">types</text>
</a>
</g>
</g>
<!-- src/pages/api/&#45;&gt;src/types/ -->
<g id="edge2" class="edge">
<title>src/pages/api/&#45;&gt;src/types/</title>
<path fill="none" stroke="#000000" stroke-width="2" stroke-opacity="0.200000" d="M51,-42.59C51,-49.64 51,-58 51,-58 51,-58 84.71,-58 84.71,-58"/>
<polygon fill="#000000" fill-opacity="0.200000" stroke="#000000" stroke-width="2" stroke-opacity="0.200000" points="84.71,-60.1 90.71,-58 84.71,-55.9 84.71,-60.1"/>
</g>
</g>
</svg>
